<?xml version="1.0" encoding="UTF-8"?>
<!DOCTYPE svg PUBLIC "-//W3C//DTD SVG 1.1//EN" "http://www.w3.org/Graphics/SVG/1.1/DTD/svg11.dtd">
<svg xmlns="http://www.w3.org/2000/svg" version="1.1" width="3544px" height="2363px" style="shape-rendering:geometricPrecision; text-rendering:geometricPrecision; image-rendering:optimizeQuality; fill-rule:evenodd; clip-rule:evenodd" xmlns:xlink="http://www.w3.org/1999/xlink">
<g><path style="opacity:1" fill="#ffffff" d="M 1724.5,146.5 C 1787.88,144.399 1850.88,148.232 1913.5,158C 1966.58,166.473 2016.92,183.139 2064.5,208C 2123.21,240.708 2166.71,287.541 2195,348.5C 2216.3,396.013 2229.96,445.68 2236,497.5C 2240.37,533.032 2242.53,568.699 2242.5,604.5C 2121.5,604.5 2000.5,604.5 1879.5,604.5C 1879.67,586.497 1879.5,568.497 1879,550.5C 1877.4,518.451 1869.4,488.118 1855,459.5C 1836.61,425.624 1807.94,408.958 1769,409.5C 1716.91,408.693 1681.25,432.36 1662,480.5C 1644.01,529.98 1647.35,577.98 1672,624.5C 1684.08,642.584 1698.92,658.084 1716.5,671C 1747.26,694.358 1780.6,713.691 1816.5,729C 1870.71,752.771 1925.38,775.438 1980.5,797C 2036.88,821.138 2088.88,852.138 2136.5,890C 2193.42,938.932 2234.59,998.765 2260,1069.5C 2270.87,1105.05 2277.54,1141.38 2280,1178.5C 2283.79,1234.11 2281.46,1289.44 2273,1344.5C 2263.72,1403.04 2243.05,1457.04 2211,1506.5C 2179.24,1550.93 2139.41,1586.1 2091.5,1612C 2039.87,1639.43 1985.2,1658.1 1927.5,1668C 1843.66,1681.96 1759.33,1685.96 1674.5,1680C 1627.34,1677.27 1580.67,1670.94 1534.5,1661C 1473.05,1647.61 1418.38,1620.94 1370.5,1581C 1317.63,1531.44 1283.79,1470.94 1269,1399.5C 1257.63,1339.43 1253.8,1278.93 1257.5,1218C 1381.83,1217.33 1506.17,1217.33 1630.5,1218C 1630.92,1247.16 1632.42,1276.33 1635,1305.5C 1637.7,1332.67 1646.37,1357.67 1661,1380.5C 1686.01,1410.86 1718.35,1425.86 1758,1425.5C 1814.99,1424.5 1852.99,1397.17 1872,1343.5C 1883.48,1306.46 1884.48,1269.13 1875,1231.5C 1865.46,1199.3 1847.29,1173.13 1820.5,1153C 1792.17,1130.82 1761.5,1112.15 1728.5,1097C 1670.65,1071.5 1612.32,1047.16 1553.5,1024C 1499.33,999.772 1449.66,968.772 1404.5,931C 1353.81,884.135 1317.31,827.968 1295,762.5C 1278.37,701.255 1272.03,638.922 1276,575.5C 1277.86,504.531 1292.86,436.531 1321,371.5C 1360.6,286.896 1423.44,226.396 1509.5,190C 1557.72,170.445 1607.72,157.778 1659.5,152C 1681.28,149.684 1702.95,147.851 1724.5,146.5 Z"/></g>
<g><path style="opacity:1" fill="#ffffff" d="M 2573.5,563.5 C 2625.84,561.519 2677.17,567.685 2727.5,582C 2804.96,607.128 2860.79,656.628 2895,730.5C 2914,773.845 2925,819.178 2928,866.5C 2929.23,883.811 2929.73,901.145 2929.5,918.5C 2840.83,918.5 2752.17,918.5 2663.5,918.5C 2663.88,884.55 2661.05,850.884 2655,817.5C 2646.06,764.55 2615.22,743.05 2562.5,753C 2536.07,759.43 2518.57,775.597 2510,801.5C 2502.9,823.313 2498.24,845.646 2496,868.5C 2491.65,913.391 2489.31,958.391 2489,1003.5C 2488.12,1088.51 2488.46,1173.51 2490,1258.5C 2490.31,1304.56 2494.64,1350.23 2503,1395.5C 2514.89,1460.36 2552.39,1483.19 2615.5,1464C 2626.89,1458.61 2635.73,1450.44 2642,1439.5C 2649.83,1425.67 2655.5,1411.01 2659,1395.5C 2665.99,1364.89 2669.99,1333.89 2671,1302.5C 2671.56,1285.5 2672.06,1268.5 2672.5,1251.5C 2639.93,1251.83 2607.43,1251.5 2575,1250.5C 2574.17,1188.6 2574.34,1126.76 2575.5,1065C 2693.5,1064.5 2811.5,1064.33 2929.5,1064.5C 2929.5,1255.5 2929.5,1446.5 2929.5,1637.5C 2867.5,1637.67 2805.5,1637.5 2743.5,1637C 2741.1,1606.23 2738.77,1575.39 2736.5,1544.5C 2714.98,1592.84 2678.64,1624.34 2627.5,1639C 2597.38,1647.21 2566.72,1651.87 2535.5,1653C 2487.48,1655.94 2440.14,1651.6 2393.5,1640C 2325.63,1620.13 2277.79,1577.63 2250,1512.5C 2249.33,1511.17 2249.33,1509.83 2250,1508.5C 2281,1455.18 2300.66,1397.84 2309,1336.5C 2320.58,1256.47 2318.58,1176.81 2303,1097.5C 2291.27,1043.38 2269.27,994.051 2237,949.5C 2229.15,938.989 2221.32,928.489 2213.5,918C 2218.66,858.543 2232.82,801.376 2256,746.5C 2294.92,661.596 2359.42,606.43 2449.5,581C 2490.33,570.565 2531.66,564.732 2573.5,563.5 Z"/></g>
<g><path style="opacity:1" fill="#ffffff" d="M 1293.5,1181.5 C 1293.17,1182.17 1292.83,1182.83 1292.5,1183.5C 1277.11,1183.06 1261.78,1183.56 1246.5,1185C 1234.51,1189.66 1226.67,1198.16 1223,1210.5C 1222.12,1248.51 1222.45,1286.51 1224,1324.5C 1227.33,1393.16 1245,1457.82 1277,1518.5C 1281.12,1525.92 1285.62,1533.09 1290.5,1540C 1264.76,1576.73 1231.43,1604.4 1190.5,1623C 1151.9,1639.73 1111.56,1649.4 1069.5,1652C 916.512,1653.48 763.512,1653.98 610.5,1653.5C 610.5,1302.5 610.5,951.5 610.5,600.5C 756.834,600.333 903.167,600.5 1049.5,601C 1102.14,601.658 1151.81,613.991 1198.5,638C 1215.05,647.206 1229.88,658.706 1243,672.5C 1246.97,715.706 1256.31,757.706 1271,798.5C 1281.82,825.817 1295.49,851.484 1312,875.5C 1312.15,924.916 1299.81,970.916 1275,1013.5C 1245.18,1060.18 1203.01,1089.18 1148.5,1100.5C 1209.22,1106.01 1257.55,1133.01 1293.5,1181.5 Z M 886.5,799.5 C 911.836,799.333 937.169,799.5 962.5,800C 993.01,804.509 1014.18,821.009 1026,849.5C 1040.52,885.914 1041.19,922.581 1028,959.5C 1021.22,976.272 1010.72,990.105 996.5,1001C 986.868,1006.66 976.534,1010.32 965.5,1012C 939.169,1012.5 912.835,1012.67 886.5,1012.5C 886.5,941.5 886.5,870.5 886.5,799.5 Z M 886.5,1199.5 C 915.856,1199.11 945.189,1199.61 974.5,1201C 998.985,1205.66 1018.82,1217.82 1034,1237.5C 1051.57,1264.45 1059.73,1294.12 1058.5,1326.5C 1059.24,1354.97 1053.41,1381.97 1041,1407.5C 1025.31,1432.85 1002.81,1448.35 973.5,1454C 944.502,1454.5 915.502,1454.67 886.5,1454.5C 886.5,1369.5 886.5,1284.5 886.5,1199.5 Z"/></g>
<g><path style="opacity:0.125" fill="#000000" d="M 1293.5,1181.5 C 1294.76,1182.62 1294.42,1183.29 1292.5,1183.5C 1292.83,1182.83 1293.17,1182.17 1293.5,1181.5 Z"/></g>
<g><path style="opacity:1" fill="#ffffff" d="M 610.5,1750.5 C 1384.17,1750.5 2157.83,1750.5 2931.5,1750.5C 2931.5,1762.17 2931.5,1773.83 2931.5,1785.5C 2157.83,1785.5 1384.17,1785.5 610.5,1785.5C 610.5,1773.83 610.5,1762.17 610.5,1750.5 Z"/></g>
<g><path style="opacity:1" fill="#ffffff" d="M 1256.5,1860.5 C 1281.18,1859.78 1304.52,1864.94 1326.5,1876C 1353.43,1893.67 1367.6,1918.83 1369,1951.5C 1369.5,1964.83 1369.67,1978.16 1369.5,1991.5C 1340.5,1991.5 1311.5,1991.5 1282.5,1991.5C 1283.05,1974.75 1282.21,1958.09 1280,1941.5C 1274.61,1923.25 1263.11,1918.09 1245.5,1926C 1239.8,1930.89 1236.3,1937.06 1235,1944.5C 1231.51,1963.33 1229.85,1982.33 1230,2001.5C 1229.24,2035.18 1229.58,2068.84 1231,2102.5C 1231.52,2114.01 1233.19,2125.34 1236,2136.5C 1241.95,2153.55 1253.45,2158.72 1270.5,2152C 1277.39,2145.35 1281.22,2137.19 1282,2127.5C 1283.79,2108.98 1284.96,2090.48 1285.5,2072C 1314.5,2071.5 1343.5,2071.33 1372.5,2071.5C 1373.87,2097.16 1371.71,2122.5 1366,2147.5C 1351.96,2189.3 1322.79,2211.47 1278.5,2214C 1252.04,2216.42 1226.04,2214.09 1200.5,2207C 1175.54,2197.37 1158.7,2179.87 1150,2154.5C 1141.33,2125.5 1137,2095.83 1137,2065.5C 1135.62,2032.05 1136.95,1998.72 1141,1965.5C 1143.36,1942.08 1150.7,1920.41 1163,1900.5C 1176.76,1881.43 1195.26,1869.6 1218.5,1865C 1231.2,1862.51 1243.87,1861.01 1256.5,1860.5 Z"/></g>
<g><path style="opacity:1" fill="#ffffff" d="M 1771.5,1860.5 C 1794.25,1860.13 1816.25,1863.96 1837.5,1872C 1864.64,1885.74 1879.81,1907.9 1883,1938.5C 1884.24,1948.13 1884.74,1957.79 1884.5,1967.5C 1856.5,1967.5 1828.5,1967.5 1800.5,1967.5C 1801.77,1954.37 1799.27,1942.04 1793,1930.5C 1786.96,1923.78 1779.46,1921.28 1770.5,1923C 1759.04,1925.13 1752.2,1931.96 1750,1943.5C 1747.03,1957.91 1750.86,1970.08 1761.5,1980C 1766.33,1983.58 1771.33,1986.91 1776.5,1990C 1794.27,1998.22 1812.27,2005.88 1830.5,2013C 1879.74,2036.29 1900.57,2075.13 1893,2129.5C 1887.07,2175.43 1861.24,2202.6 1815.5,2211C 1784.11,2215.91 1752.78,2215.58 1721.5,2210C 1685.75,2201.26 1664.92,2178.76 1659,2142.5C 1657.7,2130.87 1657.2,2119.21 1657.5,2107.5C 1686.5,2107.5 1715.5,2107.5 1744.5,2107.5C 1743.49,2120.45 1745.66,2132.78 1751,2144.5C 1758.94,2153.28 1768.77,2156.45 1780.5,2154C 1790,2151.17 1796.17,2145 1799,2135.5C 1803.54,2120.04 1800.38,2106.54 1789.5,2095C 1784.44,2090.94 1779.11,2087.28 1773.5,2084C 1758.08,2076.75 1742.41,2070.08 1726.5,2064C 1675.29,2041.38 1654.13,2002.21 1663,1946.5C 1669.7,1898.13 1697.2,1870.3 1745.5,1863C 1754.32,1862.13 1762.98,1861.29 1771.5,1860.5 Z"/></g>
<g><path style="opacity:1" fill="#ffffff" d="M 2820.5,1860.5 C 2886.57,1859.75 2923.41,1892.08 2931,1957.5C 2931.5,1963.82 2931.67,1970.16 2931.5,1976.5C 2902.5,1976.5 2873.5,1976.5 2844.5,1976.5C 2845.03,1961.4 2842.86,1946.74 2838,1932.5C 2833.8,1925.65 2827.63,1922.31 2819.5,1922.5C 2810.3,1922.35 2803.13,1926.02 2798,1933.5C 2792.9,1946.67 2790.23,1960.33 2790,1974.5C 2787.78,2021.19 2788.11,2067.86 2791,2114.5C 2791.66,2126.16 2794.66,2137.16 2800,2147.5C 2806.93,2153.94 2815.09,2156.11 2824.5,2154C 2831.33,2152.67 2836.16,2148.84 2839,2142.5C 2845.27,2123.71 2848.1,2104.38 2847.5,2084.5C 2836.92,2084.82 2826.42,2084.49 2816,2083.5C 2815.17,2063.59 2815.34,2043.76 2816.5,2024C 2854.83,2023.5 2893.17,2023.33 2931.5,2023.5C 2931.5,2085.5 2931.5,2147.5 2931.5,2209.5C 2911.17,2209.5 2890.83,2209.5 2870.5,2209.5C 2869.75,2200.18 2868.92,2190.84 2868,2181.5C 2856.21,2202.66 2838.05,2213.49 2813.5,2214C 2801.17,2214.67 2788.83,2214.67 2776.5,2214C 2738.84,2210.1 2715,2189.93 2705,2153.5C 2702.86,2145.94 2701.19,2138.27 2700,2130.5C 2695.49,2085.58 2694.49,2040.58 2697,1995.5C 2697.92,1969.97 2702.92,1945.3 2712,1921.5C 2728.08,1887.45 2754.91,1867.95 2792.5,1863C 2801.99,1862.15 2811.32,1861.31 2820.5,1860.5 Z"/></g>
<g><path style="opacity:1" fill="#ffffff" d="M 610.5,1867.5 C 662.853,1867.05 715.187,1867.55 767.5,1869C 802.879,1873.39 825.712,1892.56 836,1926.5C 841.456,1950.48 839.456,1973.82 830,1996.5C 820.867,2013.96 806.7,2025.12 787.5,2030C 817.323,2035.15 836.489,2052.32 845,2081.5C 851.849,2111.37 848.516,2140.04 835,2167.5C 822.273,2187.8 804.106,2200.63 780.5,2206C 774.248,2207.52 767.914,2208.52 761.5,2209C 711.168,2209.5 660.834,2209.67 610.5,2209.5C 610.5,2095.5 610.5,1981.5 610.5,1867.5 Z M 700.5,1933.5 C 709.839,1933.33 719.173,1933.5 728.5,1934C 739.727,1938.24 746.227,1946.41 748,1958.5C 750.885,1993.11 735.052,2007.44 700.5,2001.5C 700.5,1978.83 700.5,1956.17 700.5,1933.5 Z M 700.5,2062.5 C 743.33,2057.16 761.163,2075.83 754,2118.5C 750.824,2132.34 742.324,2140.84 728.5,2144C 719.173,2144.5 709.839,2144.67 700.5,2144.5C 700.5,2117.17 700.5,2089.83 700.5,2062.5 Z"/></g>
<g><path style="opacity:1" fill="#ffffff" d="M 937.5,1867.5 C 975.167,1867.5 1012.83,1867.5 1050.5,1867.5C 1077.69,1981.27 1105.36,2094.94 1133.5,2208.5C 1101.51,2209.5 1069.51,2209.83 1037.5,2209.5C 1034.41,2189.85 1031.41,2170.18 1028.5,2150.5C 1005.5,2150.33 982.498,2150.5 959.5,2151C 956.353,2170.37 953.019,2189.7 949.5,2209C 918.161,2209.83 886.828,2209.67 855.5,2208.5C 882.993,2094.86 910.326,1981.2 937.5,1867.5 Z M 993.5,1941.5 C 1001.91,1987.97 1009.91,2034.63 1017.5,2081.5C 1001.83,2081.5 986.167,2081.5 970.5,2081.5C 977.734,2034.76 985.401,1988.09 993.5,1941.5 Z"/></g>
<g><path style="opacity:1" fill="#ffffff" d="M 1399.5,1867.5 C 1429.5,1867.5 1459.5,1867.5 1489.5,1867.5C 1489.33,1910.5 1489.5,1953.5 1490,1996.5C 1511.71,1953.59 1533.54,1910.76 1555.5,1868C 1587.17,1867.17 1618.84,1867.33 1650.5,1868.5C 1621.9,1918.04 1593.56,1967.71 1565.5,2017.5C 1597.35,2081.37 1629.35,2145.21 1661.5,2209C 1627.16,2209.83 1592.83,2209.67 1558.5,2208.5C 1541.59,2169.69 1524.42,2131.02 1507,2092.5C 1500.94,2100.9 1495.27,2109.56 1490,2118.5C 1489.5,2148.83 1489.33,2179.16 1489.5,2209.5C 1459.5,2209.5 1429.5,2209.5 1399.5,2209.5C 1399.5,2095.5 1399.5,1981.5 1399.5,1867.5 Z"/></g>
<g><path style="opacity:1" fill="#ffffff" d="M 1903.5,1867.5 C 1932.5,1867.5 1961.5,1867.5 1990.5,1867.5C 1998.93,1944.88 2007.76,2022.21 2017,2099.5C 2027.64,2022.18 2038.14,1944.84 2048.5,1867.5C 2075.74,1867.17 2102.91,1867.51 2130,1868.5C 2141.27,1944.88 2152.77,2021.22 2164.5,2097.5C 2172.66,2021.54 2180.5,1945.54 2188,1869.5C 2216.94,1867.51 2246.11,1866.85 2275.5,1867.5C 2256.17,1981.5 2236.83,2095.5 2217.5,2209.5C 2184.5,2209.5 2151.5,2209.5 2118.5,2209.5C 2109.08,2134.45 2099.24,2059.45 2089,1984.5C 2079.33,2059.17 2069.67,2133.83 2060,2208.5C 2027,2209.83 1994,2209.83 1961,2208.5C 1941.4,2094.89 1922.23,1981.22 1903.5,1867.5 Z"/></g>
<g><path style="opacity:1" fill="#ffffff" d="M 2291.5,1867.5 C 2321.5,1867.5 2351.5,1867.5 2381.5,1867.5C 2381.5,1981.5 2381.5,2095.5 2381.5,2209.5C 2351.5,2209.5 2321.5,2209.5 2291.5,2209.5C 2291.5,2095.5 2291.5,1981.5 2291.5,1867.5 Z"/></g>
<g><path style="opacity:1" fill="#ffffff" d="M 2419.5,1867.5 C 2452.84,1867.17 2486.17,1867.5 2519.5,1868.5C 2538.64,1937.08 2557.47,2005.74 2576,2074.5C 2576.5,2005.5 2576.67,1936.5 2576.5,1867.5C 2604.5,1867.5 2632.5,1867.5 2660.5,1867.5C 2660.5,1981.5 2660.5,2095.5 2660.5,2209.5C 2627.59,2209.83 2594.76,2209.5 2562,2208.5C 2542.67,2139.83 2523.33,2071.17 2504,2002.5C 2503.5,2071.5 2503.33,2140.5 2503.5,2209.5C 2475.26,2209.83 2447.09,2209.5 2419,2208.5C 2418.17,2094.76 2418.34,1981.1 2419.5,1867.5 Z"/></g>
<style>
  path { fill: #000; }
  @media (prefers-color-schema: dark) {
  path { fill: #FFF; }
  }
</style>
</svg>
